<mxfile host="app.diagrams.net" modified="2021-03-19T07:25:29.222Z" agent="5.0 (Windows NT 10.0; Win64; x64) AppleWebKit/537.36 (KHTML, like Gecko) Chrome/89.0.4389.82 Safari/537.36" etag="dcbbwGJzN_LlJdHqIXbz" version="14.4.5" type="github">
  <diagram id="cYfa8lgzgTLfVm2sliMU" name="第 1 页">
    <mxGraphModel dx="1662" dy="762" grid="1" gridSize="10" guides="1" tooltips="1" connect="1" arrows="1" fold="1" page="1" pageScale="1" pageWidth="827" pageHeight="1169" math="0" shadow="0">
      <root>
        <mxCell id="0" />
        <mxCell id="1" parent="0" />
        <mxCell id="G8hUHB8uOq_SmMZOWIxZ-6" style="edgeStyle=orthogonalEdgeStyle;rounded=0;orthogonalLoop=1;jettySize=auto;html=1;" edge="1" parent="1" source="G8hUHB8uOq_SmMZOWIxZ-1" target="G8hUHB8uOq_SmMZOWIxZ-3">
          <mxGeometry relative="1" as="geometry">
            <Array as="points">
              <mxPoint x="150" y="170" />
              <mxPoint x="390" y="170" />
            </Array>
          </mxGeometry>
        </mxCell>
        <mxCell id="G8hUHB8uOq_SmMZOWIxZ-7" value="用户集中登录WPC&lt;br&gt;获取token" style="edgeLabel;html=1;align=center;verticalAlign=middle;resizable=0;points=[];" vertex="1" connectable="0" parent="G8hUHB8uOq_SmMZOWIxZ-6">
          <mxGeometry x="-0.3259" y="2" relative="1" as="geometry">
            <mxPoint as="offset" />
          </mxGeometry>
        </mxCell>
        <mxCell id="G8hUHB8uOq_SmMZOWIxZ-1" value="用户来源&lt;br&gt;WPC&lt;br&gt;API" style="whiteSpace=wrap;html=1;aspect=fixed;" vertex="1" parent="1">
          <mxGeometry x="110" y="30" width="80" height="80" as="geometry" />
        </mxCell>
        <mxCell id="G8hUHB8uOq_SmMZOWIxZ-8" style="edgeStyle=orthogonalEdgeStyle;rounded=0;orthogonalLoop=1;jettySize=auto;html=1;" edge="1" parent="1" source="G8hUHB8uOq_SmMZOWIxZ-3" target="G8hUHB8uOq_SmMZOWIxZ-4">
          <mxGeometry relative="1" as="geometry">
            <Array as="points">
              <mxPoint x="680" y="270" />
            </Array>
          </mxGeometry>
        </mxCell>
        <mxCell id="G8hUHB8uOq_SmMZOWIxZ-9" value="发放token至前端" style="edgeLabel;html=1;align=center;verticalAlign=middle;resizable=0;points=[];" vertex="1" connectable="0" parent="G8hUHB8uOq_SmMZOWIxZ-8">
          <mxGeometry x="-0.4361" y="-3" relative="1" as="geometry">
            <mxPoint as="offset" />
          </mxGeometry>
        </mxCell>
        <mxCell id="G8hUHB8uOq_SmMZOWIxZ-3" value="定价辅助系统API" style="rounded=1;whiteSpace=wrap;html=1;" vertex="1" parent="1">
          <mxGeometry x="354" y="240" width="120" height="60" as="geometry" />
        </mxCell>
        <mxCell id="G8hUHB8uOq_SmMZOWIxZ-4" value="前端Web界面" style="ellipse;whiteSpace=wrap;html=1;" vertex="1" parent="1">
          <mxGeometry x="660" y="230" width="120" height="80" as="geometry" />
        </mxCell>
        <mxCell id="G8hUHB8uOq_SmMZOWIxZ-10" style="edgeStyle=orthogonalEdgeStyle;rounded=0;orthogonalLoop=1;jettySize=auto;html=1;entryX=0.5;entryY=1;entryDx=0;entryDy=0;" edge="1" parent="1" source="G8hUHB8uOq_SmMZOWIxZ-5" target="G8hUHB8uOq_SmMZOWIxZ-3">
          <mxGeometry relative="1" as="geometry" />
        </mxCell>
        <mxCell id="G8hUHB8uOq_SmMZOWIxZ-11" value="定价辅助系统数据库" style="edgeLabel;html=1;align=center;verticalAlign=middle;resizable=0;points=[];" vertex="1" connectable="0" parent="G8hUHB8uOq_SmMZOWIxZ-10">
          <mxGeometry x="-0.5058" y="-2" relative="1" as="geometry">
            <mxPoint as="offset" />
          </mxGeometry>
        </mxCell>
        <mxCell id="G8hUHB8uOq_SmMZOWIxZ-5" value="PGSQL数据库" style="shape=cylinder3;whiteSpace=wrap;html=1;boundedLbl=1;backgroundOutline=1;size=15;" vertex="1" parent="1">
          <mxGeometry x="384" y="440" width="60" height="80" as="geometry" />
        </mxCell>
        <mxCell id="G8hUHB8uOq_SmMZOWIxZ-13" style="edgeStyle=orthogonalEdgeStyle;rounded=0;orthogonalLoop=1;jettySize=auto;html=1;exitX=0.5;exitY=1;exitDx=0;exitDy=0;entryX=0.75;entryY=0;entryDx=0;entryDy=0;" edge="1" parent="1" source="G8hUHB8uOq_SmMZOWIxZ-12" target="G8hUHB8uOq_SmMZOWIxZ-3">
          <mxGeometry relative="1" as="geometry">
            <mxPoint x="450" y="230" as="targetPoint" />
          </mxGeometry>
        </mxCell>
        <mxCell id="G8hUHB8uOq_SmMZOWIxZ-14" value="根据项目编号获取项目配置&lt;br&gt;及环境" style="edgeLabel;html=1;align=center;verticalAlign=middle;resizable=0;points=[];" vertex="1" connectable="0" parent="G8hUHB8uOq_SmMZOWIxZ-13">
          <mxGeometry x="-0.1034" y="-2" relative="1" as="geometry">
            <mxPoint as="offset" />
          </mxGeometry>
        </mxCell>
        <mxCell id="G8hUHB8uOq_SmMZOWIxZ-12" value="配置中心" style="whiteSpace=wrap;html=1;aspect=fixed;" vertex="1" parent="1">
          <mxGeometry x="600" y="30" width="80" height="80" as="geometry" />
        </mxCell>
        <mxCell id="G8hUHB8uOq_SmMZOWIxZ-16" style="edgeStyle=orthogonalEdgeStyle;rounded=0;orthogonalLoop=1;jettySize=auto;html=1;entryX=0;entryY=0.5;entryDx=0;entryDy=0;" edge="1" parent="1" source="G8hUHB8uOq_SmMZOWIxZ-15" target="G8hUHB8uOq_SmMZOWIxZ-3">
          <mxGeometry relative="1" as="geometry" />
        </mxCell>
        <mxCell id="G8hUHB8uOq_SmMZOWIxZ-17" value="获取品类&lt;br&gt;商品信息&lt;br&gt;促销信息" style="edgeLabel;html=1;align=center;verticalAlign=middle;resizable=0;points=[];" vertex="1" connectable="0" parent="G8hUHB8uOq_SmMZOWIxZ-16">
          <mxGeometry x="-0.25" y="1" relative="1" as="geometry">
            <mxPoint as="offset" />
          </mxGeometry>
        </mxCell>
        <mxCell id="G8hUHB8uOq_SmMZOWIxZ-15" value="数据仓库&lt;br&gt;redshift" style="shape=cylinder3;whiteSpace=wrap;html=1;boundedLbl=1;backgroundOutline=1;size=15;" vertex="1" parent="1">
          <mxGeometry x="110" y="230" width="60" height="80" as="geometry" />
        </mxCell>
      </root>
    </mxGraphModel>
  </diagram>
</mxfile>
